<svg width="39" height="39" viewBox="0 0 39 39" fill="none" xmlns="http://www.w3.org/2000/svg">
<path d="M37.7969 0H0.640625C0.470721 0 0.307775 0.0674942 0.187635 0.187635C0.0674942 0.307775 0 0.470721 0 0.640625V32.0312C0 32.2012 0.0674942 32.3641 0.187635 32.4842C0.307775 32.6044 0.470721 32.6719 0.640625 32.6719H25.6577C25.8233 34.3061 26.6104 35.8142 27.8562 36.8847C29.1021 37.9551 30.7115 38.5062 32.352 38.4239C33.9925 38.3417 35.5387 37.6325 36.6713 36.4428C37.8038 35.2531 38.4361 33.6738 38.4375 32.0312V0.640625C38.4375 0.470721 38.37 0.307775 38.2499 0.187635C38.1297 0.0674942 37.9668 0 37.7969 0ZM32.0312 37.1562C31.0176 37.1562 30.0268 36.8557 29.184 36.2925C28.3412 35.7294 27.6843 34.929 27.2964 33.9925C26.9085 33.056 26.807 32.0256 27.0047 31.0314C27.2025 30.0373 27.6906 29.1241 28.4073 28.4073C29.1241 27.6906 30.0373 27.2025 31.0314 27.0047C32.0256 26.807 33.056 26.9085 33.9925 27.2964C34.929 27.6843 35.7294 28.3411 36.2925 29.184C36.8557 30.0268 37.1562 31.0176 37.1562 32.0312C37.1547 33.39 36.6143 34.6927 35.6535 35.6535C34.6927 36.6143 33.39 37.1547 32.0312 37.1562ZM26.4918 28.8281H20.5V7.6875H34.5938V26.1638C33.1524 25.5308 31.528 25.4527 30.0325 25.9444C28.5371 26.4362 27.2761 27.4632 26.4918 28.8281ZM37.1562 28.2042C36.7918 27.7174 36.3604 27.2846 35.875 26.9184V7.04687C35.875 6.87697 35.8075 6.71402 35.6874 6.59388C35.5672 6.47374 35.4043 6.40625 35.2344 6.40625H19.8594C19.6895 6.40625 19.5265 6.47374 19.4064 6.59388C19.2862 6.71402 19.2188 6.87697 19.2188 7.04687V29.4687C19.2188 29.6387 19.2862 29.8016 19.4064 29.9217C19.5265 30.0419 19.6895 30.1094 19.8594 30.1094H25.9203C25.7888 30.5262 25.7008 30.9556 25.6577 31.3906H1.28125V5.125H37.1562V28.2042ZM37.1562 3.84375H1.28125V1.28125H37.1562V3.84375Z" fill="#4628A4"/>
</svg>
